<svg width="767" height="733" viewBox="0 0 767 733" fill="none" xmlns="http://www.w3.org/2000/svg">
<path d="M246.081 16.389C241.561 16.389 237.881 12.7292 237.881 8.19452C237.881 3.65986 241.544 0 246.081 0C250.619 0 254.281 3.65986 254.281 8.19452C254.281 12.7292 250.619 16.389 246.081 16.389Z" fill="#9C4B40"/>
<path d="M102.63 107.279C98.1107 107.279 94.4307 103.619 94.4307 99.0842C94.4307 94.5495 98.0928 90.8896 102.63 90.8896C107.168 90.8896 110.83 94.5495 110.83 99.0842C110.83 103.619 107.168 107.279 102.63 107.279Z" fill="#9C4B40"/>
<path d="M102.63 678.61C107.159 678.61 110.83 674.941 110.83 670.416C110.83 665.89 107.159 662.221 102.63 662.221C98.1018 662.221 94.4307 665.89 94.4307 670.416C94.4307 674.941 98.1018 678.61 102.63 678.61Z" fill="#9C4B40"/>
<path d="M608.459 655.348C603.939 655.348 600.259 651.688 600.259 647.153C600.259 642.618 603.921 638.958 608.459 638.958C612.996 638.958 616.658 642.618 616.658 647.153C616.658 651.688 612.996 655.348 608.459 655.348Z" fill="#9C4B40"/>
<path d="M728.096 728.634C723.577 728.634 719.896 724.974 719.896 720.439C719.896 715.905 723.559 712.245 728.096 712.245C732.634 712.245 736.296 715.905 736.296 720.439C736.296 724.974 732.634 728.634 728.096 728.634Z" fill="#9C4B40"/>
<path d="M721.45 46.3641C716.931 46.3641 713.25 42.7043 713.25 38.1696C713.25 33.635 716.913 29.9751 721.45 29.9751C725.988 29.9751 729.65 33.635 729.65 38.1696C729.65 42.7043 725.988 46.3641 721.45 46.3641Z" fill="#9C4B40"/>
<path d="M758.733 206.774C754.213 206.774 750.533 203.114 750.533 198.579C750.533 194.044 754.195 190.385 758.733 190.385C763.27 190.385 766.933 194.044 766.933 198.579C766.933 203.114 763.27 206.774 758.733 206.774Z" fill="#9C4B40"/>
<path d="M299.173 732.205C294.654 732.205 290.974 728.545 290.974 724.01C290.974 719.476 294.636 715.816 299.173 715.816C303.711 715.816 307.373 719.476 307.373 724.01C307.373 728.545 303.711 732.205 299.173 732.205Z" fill="#9C4B40"/>
<path d="M593.185 88.765C588.665 88.765 584.985 85.1052 584.985 80.5705C584.985 76.0358 588.647 72.376 593.185 72.376C597.722 72.376 601.384 76.0358 601.384 80.5705C601.384 85.1052 597.722 88.765 593.185 88.765Z" fill="#9C4B40"/>
<path d="M8.19972 464.91C3.68005 464.91 0 461.25 0 456.715C0 452.181 3.66219 448.521 8.19972 448.521C12.7373 448.521 16.3994 452.181 16.3994 456.715C16.3994 461.25 12.7373 464.91 8.19972 464.91Z" fill="#9C4B40"/>
</svg>
