<svg width="24" height="22" viewBox="0 0 24 22" fill="none" xmlns="http://www.w3.org/2000/svg">
<path d="M1.25378 15.7061C1.21225 16.1182 1.51269 16.4859 1.92481 16.5275C2.33694 16.569 2.7047 16.2686 2.74622 15.8564L1.25378 15.7061ZM3.16667 4.20213L2.65189 3.65668C2.5207 3.7805 2.43853 3.94746 2.42044 4.12694L3.16667 4.20213ZM6.01477 2.54544C6.31601 2.26114 6.32974 1.78647 6.04544 1.48523C5.76114 1.18399 5.28647 1.17026 4.98523 1.45456L6.01477 2.54544ZM21.2538 15.8564C21.2953 16.2686 21.6631 16.569 22.0752 16.5275C22.4873 16.4859 22.7877 16.1182 22.7462 15.7061L21.2538 15.8564ZM20.8333 4.20213L21.5796 4.12694C21.5615 3.94746 21.4793 3.7805 21.3481 3.65668L20.8333 4.20213ZM19.0148 1.45456C18.7135 1.17026 18.2389 1.18399 17.9546 1.48523C17.6703 1.78647 17.684 2.26114 17.9852 2.54544L19.0148 1.45456ZM8.25 16.0625C8.25 17.9084 6.93818 19.25 5.5 19.25V20.75C7.92782 20.75 9.75 18.5658 9.75 16.0625H8.25ZM5.5 19.25C4.06182 19.25 2.75 17.9084 2.75 16.0625H1.25C1.25 18.5658 3.07218 20.75 5.5 20.75V19.25ZM2.75 16.0625C2.75 14.2166 4.06182 12.875 5.5 12.875V11.375C3.07218 11.375 1.25 13.5592 1.25 16.0625H2.75ZM5.5 12.875C6.93818 12.875 8.25 14.2166 8.25 16.0625H9.75C9.75 13.5592 7.92782 11.375 5.5 11.375V12.875ZM9.63525 15.5617C10.1327 14.5943 11.0283 14 12 14V12.5C10.3808 12.5 9.01417 13.4893 8.30127 14.8758L9.63525 15.5617ZM12 14C12.9718 14 13.8674 14.5943 14.3648 15.5617L15.6988 14.8758C14.9859 13.4893 13.6193 12.5 12 12.5V14ZM21.25 16.0625C21.25 17.9084 19.9382 19.25 18.5 19.25V20.75C20.9278 20.75 22.75 18.5658 22.75 16.0625H21.25ZM18.5 19.25C17.0618 19.25 15.75 17.9084 15.75 16.0625H14.25C14.25 18.5658 16.0722 20.75 18.5 20.75V19.25ZM15.75 16.0625C15.75 14.2166 17.0618 12.875 18.5 12.875V11.375C16.0722 11.375 14.25 13.5592 14.25 16.0625H15.75ZM18.5 12.875C19.9382 12.875 21.25 14.2166 21.25 16.0625H22.75C22.75 13.5592 20.9278 11.375 18.5 11.375V12.875ZM2.74622 15.8564L3.91289 4.27731L2.42044 4.12694L1.25378 15.7061L2.74622 15.8564ZM3.68144 4.74757L6.01477 2.54544L4.98523 1.45456L2.65189 3.65668L3.68144 4.74757ZM22.7462 15.7061L21.5796 4.12694L20.0871 4.27731L21.2538 15.8564L22.7462 15.7061ZM21.3481 3.65668L19.0148 1.45456L17.9852 2.54544L20.3186 4.74757L21.3481 3.65668Z" fill="#737374"/>
</svg>
