<svg width="21" height="21" viewBox="0 0 21 21" fill="none" xmlns="http://www.w3.org/2000/svg">
<path d="M4.65595 4.63688V3.05475C4.65595 2.47223 5.13166 2 5.71848 2H15.8125C16.3993 2 16.875 2.47223 16.875 3.05475V7.27375M2.00047 16.8904L2.00055 8.87055C2.00056 8.06725 2.00026 6.92308 2 6.09461C1.99982 5.51194 2.47559 5.04013 3.06257 5.04013H8.12568L10.5739 7.63626H17.9375C18.5243 7.63626 19 8.10851 19 8.69104L18.9997 16.8906C18.9997 18.0556 18.0483 19 16.8747 19L4.12552 19C2.95188 19 2.00046 18.0555 2.00047 16.8904Z" stroke="#737374" stroke-width="1.5" stroke-linecap="round" stroke-linejoin="round"/>
</svg>
