<svg width="22" height="21" viewBox="0 0 22 21" fill="none" xmlns="http://www.w3.org/2000/svg">
<path d="M11.25 0C5.46137 0 0.75 4.71138 0.75 10.5C0.75 16.2886 5.46137 21 11.25 21C17.0386 21 21.75 16.2886 21.75 10.5C21.75 4.71138 17.0386 0 11.25 0ZM11.25 1.75C16.0929 1.75 20 5.65715 20 10.5C20 15.3429 16.0929 19.25 11.25 19.25C6.40714 19.25 2.5 15.3429 2.5 10.5C2.5 5.65715 6.40714 1.75 11.25 1.75ZM11.25 3.5C10.7653 3.5 10.375 3.89025 10.375 4.375V10.5C10.375 10.9847 10.7653 11.375 11.25 11.375H17.375C17.8598 11.375 18.25 10.9847 18.25 10.5C18.25 10.0153 17.8598 9.625 17.375 9.625H12.125V4.375C12.125 3.89025 11.7347 3.5 11.25 3.5Z" fill="#737374"/>
</svg>
