<svg width="22" height="24" viewBox="0 0 22 24" fill="none" xmlns="http://www.w3.org/2000/svg">
<path d="M2 14.4529H13.2678M2 14.4529L13.21 14.4518C13.2294 14.4518 13.2487 14.4522 13.2678 14.4529M2 14.4529L2 18.5C2 19.0523 2.53206 19.5 3.18838 19.5H13.2104C13.8667 19.5 14.3988 19.0523 14.3988 18.5V15.4518C14.3988 14.9157 13.8975 14.4782 13.2678 14.4529M2 14.4529L2 9.4044M13.2678 14.4529H18.8116C19.4679 14.4529 20 14.0052 20 13.4529V10.4044C20 9.85212 19.4679 9.4044 18.8116 9.4044M2 9.4044H18.8116M2 9.4044L2 5.5C2 4.94772 2.53206 4.5 3.18838 4.5L7.9419 4.5C8.59823 4.5 9.13028 4.94772 9.13028 5.5V8.4044C9.13028 8.95669 8.59823 9.4044 7.9419 9.4044L18.8116 9.4044M2 22V2" stroke="#737374" stroke-width="1.5" stroke-linecap="round" stroke-linejoin="round"/>
</svg>
