<svg width="22" height="17" viewBox="0 0 22 17" fill="none" xmlns="http://www.w3.org/2000/svg">
<path fill-rule="evenodd" clip-rule="evenodd" d="M14.6666 2.5C13.1479 2.5 11.9166 3.84315 11.9166 5.5C11.9166 7.1569 13.1479 8.5 14.6666 8.5C16.1854 8.5 17.4166 7.1569 17.4166 5.5C17.4166 3.84315 16.1854 2.5 14.6666 2.5ZM10.0833 5.5C10.0833 2.73858 12.1353 0.5 14.6666 0.5C17.1979 0.5 19.2499 2.73858 19.2499 5.5C19.2499 6.8193 18.7815 8.0193 18.0163 8.9128C19.7038 9.5124 21.0077 10.6993 21.8408 12.0329C22.1259 12.4893 22.0178 13.1114 21.5994 13.4224C21.1811 13.7334 20.6108 13.6155 20.3257 13.1591C19.4313 11.7273 17.7996 10.5 15.5833 10.5C12.0688 10.5 10.0833 13.5742 10.0833 15.5C10.0833 16.0523 9.6729 16.5 9.16663 16.5C8.66038 16.5 8.24997 16.0523 8.24997 15.5C8.24997 14.808 8.39524 14.07 8.67238 13.3425C8.60177 13.2931 8.53624 13.2323 8.47811 13.1602C7.72567 12.2262 6.55796 11.5 5.04165 11.5C3.52535 11.5 2.35765 12.2262 1.6052 13.1602C1.271 13.575 0.691798 13.6157 0.311532 13.2511C-0.0687322 12.8865 -0.106066 12.2547 0.228144 11.8398C0.741612 11.2025 1.39135 10.6364 2.1608 10.2207C1.39323 9.4035 0.916672 8.2625 0.916672 7C0.916672 4.51472 2.76349 2.5 5.04165 2.5C7.31982 2.5 9.16663 4.51472 9.16663 7C9.16663 8.2625 8.69008 9.4035 7.92251 10.2207C8.58471 10.5785 9.15824 11.0476 9.63256 11.5777C10.2226 10.7659 10.9895 10.0382 11.9095 9.4945C10.8003 8.5819 10.0833 7.1323 10.0833 5.5ZM2.75 7C2.75 5.61929 3.77601 4.5 5.04165 4.5C6.3073 4.5 7.33331 5.61929 7.33331 7C7.33331 8.3807 6.3073 9.5 5.04165 9.5C3.77601 9.5 2.75 8.3807 2.75 7Z" fill="#44444F"/>
</svg>
