<svg width="30" height="30" viewBox="0 0 30 30" fill="none" xmlns="http://www.w3.org/2000/svg">
<path fill-rule="evenodd" clip-rule="evenodd" d="M30 15C30 23.2842 23.2842 30 15 30C6.71572 30 0 23.2842 0 15C0 6.71572 6.71572 0 15 0C23.2842 0 30 6.71572 30 15ZM15 8.625C14.0681 8.625 13.3125 9.38052 13.3125 10.3125C13.3125 10.9338 12.8088 11.4375 12.1875 11.4375C11.5662 11.4375 11.0625 10.9338 11.0625 10.3125C11.0625 8.13787 12.8254 6.375 15 6.375C17.1745 6.375 18.9375 8.13787 18.9375 10.3125C18.9375 11.3788 18.5123 12.348 17.8245 13.056C17.6861 13.1984 17.5541 13.3304 17.4281 13.4562C17.1043 13.7796 16.8207 14.063 16.5718 14.3827C16.2434 14.8048 16.125 15.1152 16.125 15.375V16.5C16.125 17.1213 15.6213 17.625 15 17.625C14.3787 17.625 13.875 17.1213 13.875 16.5V15.375C13.875 14.3922 14.3325 13.5966 14.7963 13.0008C15.1393 12.5599 15.5706 12.1295 15.9207 11.7802C16.0263 11.6748 16.1244 11.5768 16.2105 11.4882C16.5069 11.1831 16.6875 10.7701 16.6875 10.3125C16.6875 9.38052 15.9319 8.625 15 8.625ZM15 22.5C15.8285 22.5 16.5 21.8284 16.5 21C16.5 20.1716 15.8285 19.5 15 19.5C14.1715 19.5 13.5 20.1716 13.5 21C13.5 21.8284 14.1715 22.5 15 22.5Z" fill="#737374"/>
</svg>
