<svg width="23" height="23" viewBox="0 0 23 23" fill="none" xmlns="http://www.w3.org/2000/svg">
<path d="M15.9706 9.74074H19.9444C20.5274 9.74074 21 10.3008 21 10.9918V18.3002V19C21 20.1046 20.1046 21 19 21H4.375M2 3.25103V18.9219C2 20.0696 2.93041 21 4.07812 21V21C5.22584 21 6.15625 20.0696 6.15625 18.9219V10.9918C6.15625 10.3008 6.62884 9.74074 7.21181 9.74074H18.8889V6.78335C18.8889 6.09242 18.4163 5.53232 17.8333 5.53232H10.8791L9.26611 2.57231C9.07169 2.21551 8.73779 2 8.37941 2H3.05556C2.47259 2 2 2.56011 2 3.25103Z" stroke="#737374" stroke-width="1.5" stroke-linecap="round" stroke-linejoin="round"/>
</svg>
