<svg width="22" height="21" viewBox="0 0 22 21" fill="none" xmlns="http://www.w3.org/2000/svg">
<path d="M17.5357 18.6429C17.5357 19.3924 18.1433 20 18.8929 20C19.6424 20 20.25 19.3924 20.25 18.6429C20.25 17.8933 19.6424 17.2857 18.8929 17.2857C18.1433 17.2857 17.5357 17.8933 17.5357 18.6429Z" stroke="#737374" stroke-width="2" stroke-linecap="round" stroke-linejoin="round"/>
<path d="M9.39286 18.6429C9.39286 19.3924 10.0004 20 10.75 20C11.4995 20 12.1071 19.3924 12.1071 18.6429C12.1071 17.8933 11.4995 17.2857 10.75 17.2857C10.0004 17.2857 9.39286 17.8933 9.39286 18.6429Z" stroke="#737374" stroke-width="2" stroke-linecap="round" stroke-linejoin="round"/>
<path d="M1.25 18.6429C1.25 19.3924 1.85762 20 2.60714 20C3.35667 20 3.96429 19.3924 3.96429 18.6429C3.96429 17.8933 3.35667 17.2857 2.60714 17.2857C1.85762 17.2857 1.25 17.8933 1.25 18.6429Z" stroke="#737374" stroke-width="2" stroke-linecap="round" stroke-linejoin="round"/>
<path d="M17.5357 10.5C17.5357 11.2495 18.1433 11.8571 18.8929 11.8571C19.6424 11.8571 20.25 11.2495 20.25 10.5C20.25 9.75045 19.6424 9.14286 18.8929 9.14286C18.1433 9.14286 17.5357 9.75045 17.5357 10.5Z" stroke="#737374" stroke-width="2" stroke-linecap="round" stroke-linejoin="round"/>
<path d="M9.39286 10.5C9.39286 11.2495 10.0004 11.8571 10.75 11.8571C11.4995 11.8571 12.1071 11.2495 12.1071 10.5C12.1071 9.75045 11.4995 9.14286 10.75 9.14286C10.0004 9.14286 9.39286 9.75045 9.39286 10.5Z" stroke="#737374" stroke-width="2" stroke-linecap="round" stroke-linejoin="round"/>
<path d="M1.25 10.5C1.25 11.2495 1.85762 11.8571 2.60714 11.8571C3.35667 11.8571 3.96429 11.2495 3.96429 10.5C3.96429 9.75045 3.35667 9.14286 2.60714 9.14286C1.85762 9.14286 1.25 9.75045 1.25 10.5Z" stroke="#737374" stroke-width="2" stroke-linecap="round" stroke-linejoin="round"/>
<path d="M17.5357 2.35714C17.5357 3.10667 18.1433 3.71429 18.8929 3.71429C19.6424 3.71429 20.25 3.10667 20.25 2.35714C20.25 1.60762 19.6424 1 18.8929 1C18.1433 1 17.5357 1.60762 17.5357 2.35714Z" stroke="#737374" stroke-width="2" stroke-linecap="round" stroke-linejoin="round"/>
<path d="M9.39286 2.35714C9.39286 3.10667 10.0004 3.71429 10.75 3.71429C11.4995 3.71429 12.1071 3.10667 12.1071 2.35714C12.1071 1.60762 11.4995 1 10.75 1C10.0004 1 9.39286 1.60762 9.39286 2.35714Z" stroke="#737374" stroke-width="2" stroke-linecap="round" stroke-linejoin="round"/>
<path d="M1.25 2.35714C1.25 3.10667 1.85762 3.71429 2.60714 3.71429C3.35667 3.71429 3.96429 3.10667 3.96429 2.35714C3.96429 1.60762 3.35667 1 2.60714 1C1.85762 1 1.25 1.60762 1.25 2.35714Z" stroke="#737374" stroke-width="2" stroke-linecap="round" stroke-linejoin="round"/>
</svg>
