<svg width="32" height="32" viewBox="0 0 32 32" fill="none" xmlns="http://www.w3.org/2000/svg">
<path d="M16 20.8681C12.1655 20.8681 9.04504 17.7477 9.04504 13.9132C9.04504 10.0787 12.1655 6.95822 16 6.95822C19.8345 6.95822 22.955 10.0787 22.955 13.9132C22.955 17.7477 19.8345 20.8681 16 20.8681ZM16 9.73956C13.698 9.73956 11.8264 11.6112 11.8264 13.9132C11.8264 16.2152 13.698 18.0868 16 18.0868C18.302 18.0868 20.1736 16.2152 20.1736 13.9132C20.1736 11.6112 18.302 9.73956 16 9.73956Z" fill="#737374"/>
<path d="M26.5971 27.4416C26.0852 27.4416 25.5928 27.1579 25.3515 26.6688C23.5745 23.0919 19.991 20.8681 16 20.8681C12.009 20.8681 8.42552 23.0887 6.64846 26.6688C6.30609 27.3568 5.47137 27.6373 4.78337 27.2949C4.09537 26.9525 3.81496 26.1178 4.15733 25.4298C6.40717 20.9008 10.946 18.0868 16 18.0868C21.054 18.0868 25.5928 20.9008 27.8427 25.4298C28.185 26.1178 27.9046 26.9525 27.2166 27.2949C27.0177 27.3927 26.8058 27.4416 26.5971 27.4416Z" fill="#737374"/>
<path d="M16 32C7.17669 32 0 24.8233 0 16C0 7.17669 7.17669 0 16 0C24.8233 0 32 7.17669 32 16C32 24.8233 24.8233 32 16 32ZM16 2.78459C8.71245 2.78459 2.78459 8.71245 2.78459 16C2.78459 23.2875 8.71245 29.2154 16 29.2154C23.2875 29.2154 29.2154 23.2875 29.2154 16C29.2154 8.71245 23.2875 2.78459 16 2.78459Z" fill="#737374"/>
</svg>
