<svg width="23" height="21" viewBox="0 0 23 21" fill="none" xmlns="http://www.w3.org/2000/svg">
<path fill-rule="evenodd" clip-rule="evenodd" d="M13.4697 1.53981C12.8784 0.153397 10.6216 0.153397 10.0303 1.53981L9.55092 2.66542L8.25475 3.08143C6.65975 3.59503 6.65975 5.55585 8.25475 6.06865L9.55092 6.48466L10.0303 7.61107C10.6216 8.99748 12.8784 8.99748 13.4697 7.61107L13.9491 6.48546L15.2443 6.06945C16.8412 5.55585 16.8412 3.59503 15.2443 3.08143L13.9491 2.66542L13.4697 1.53981ZM11.2697 3.21823L11.75 2.09182L12.2294 3.21743C12.4155 3.65263 12.8106 3.99663 13.3129 4.15824L14.6091 4.57424L13.3129 4.99104C12.8106 5.15265 12.4146 5.49585 12.2294 5.93185L11.75 7.05826L11.2706 5.93265C11.1784 5.71691 11.0339 5.52112 10.8469 5.35872C10.6598 5.19633 10.4348 5.07117 10.1871 4.99184L8.89183 4.57584L10.1871 4.15904C10.6894 3.99743 11.0854 3.65343 11.2706 3.21823H11.2697ZM9.91667 9.35269C8.39775 9.35269 7.16667 10.4223 7.16667 11.7415V12.6735C6.87975 12.5855 6.57083 12.5375 6.25 12.5375H3.5C1.98108 12.5375 0.75 13.6071 0.75 14.9263V18.1112C0.750842 18.4256 0.82264 18.7368 0.961296 19.0271C1.09995 19.3173 1.30275 19.5808 1.55811 19.8026C1.81347 20.0245 2.1164 20.2002 2.44959 20.3199C2.78278 20.4395 3.13971 20.5007 3.5 20.5H20C21.5189 20.5 22.75 19.4304 22.75 18.1112V16.5192C22.7492 16.2047 22.6774 15.8935 22.5387 15.6033C22.4 15.3131 22.1973 15.0495 21.9419 14.8277C21.6865 14.6059 21.3836 14.4301 21.0504 14.3105C20.7172 14.1908 20.3603 14.1296 20 14.1303H17.25C16.9292 14.1303 16.6203 14.1783 16.3333 14.2663V11.7415C16.3325 11.4271 16.2607 11.1159 16.122 10.8256C15.9834 10.5354 15.7806 10.2719 15.5252 10.05C15.2699 9.82821 14.9669 9.65246 14.6337 9.53281C14.3006 9.41315 13.9436 9.35195 13.5833 9.35269H9.91667ZM14.5 18.9072H9V11.7415C9 11.3015 9.41067 10.9455 9.91667 10.9455H13.5833C14.0893 10.9455 14.5 11.3015 14.5 11.7415V18.9072ZM20 18.9072H16.3333V16.5192C16.3333 16.0792 16.744 15.7223 17.25 15.7223H20C20.506 15.7223 20.9167 16.0792 20.9167 16.5192V18.1112C20.9167 18.5512 20.506 18.9072 20 18.9072ZM7.16667 18.9072V14.9263C7.16594 14.7147 7.06898 14.512 6.8971 14.3628C6.72522 14.2135 6.49247 14.1299 6.25 14.1303H3.5C2.994 14.1303 2.58333 14.4863 2.58333 14.9263V18.1112C2.58333 18.5512 2.994 18.9072 3.5 18.9072H7.16667Z" fill="#737374"/>
</svg>
