<svg width="20" height="20" viewBox="0 0 20 20" fill="none" xmlns="http://www.w3.org/2000/svg">
<path fill-rule="evenodd" clip-rule="evenodd" d="M13.8372 12.5721H12.9815L12.6782 12.2705C13.7397 10.9973 14.3787 9.34422 14.3787 7.54598C14.3787 3.53624 11.2268 0.286011 7.3383 0.286011C3.4498 0.286011 0.297852 3.53624 0.297852 7.54598C0.297852 11.5557 3.4498 14.806 7.3383 14.806C9.08216 14.806 10.6852 14.147 11.92 13.0524L12.2124 13.3651V14.2475L17.6282 19.8209L19.2421 18.1567L13.8372 12.5721ZM7.3382 12.5722C4.64116 12.5722 2.46404 10.3272 2.46404 7.54603C2.46404 4.7649 4.64116 2.5199 7.3382 2.5199C10.0352 2.5199 12.2123 4.7649 12.2123 7.54603C12.2123 10.3272 10.0352 12.5722 7.3382 12.5722Z" fill="#84818A"/>
</svg>
